# xmcd
#
# Track frame offsets:
#	150
#	19942
#	43510
#	61227
#	85447
#	115457
#	133110
#
# Disc length: 2150 seconds
#
# Revision: 0
# Processed by: cddbd v1.4PL0 Copyright (c) Steve Scherf et al.
# Submitted via: dBpowerAMP V4.0
#
DISCID=5e086407
DTITLE=Peps Persson - Sweet Mary Jane (you'll never find out if you don't turn on)
DYEAR=1969
DGENRE=Blues
TTITLE0=Sweet Mary Jane
TTITLE1=Copenhagen Blues
TTITLE2=You're so Fine
TTITLE3=Somebody
TTITLE4=I Once Was A Gambler
TTITLE5=Sail Off To Another Shore
TTITLE6=Sad Night Is Fallin'
EXTD=Subnitted by kingtobbe
EXTT0=
EXTT1=
EXTT2=
EXTT3=
EXTT4=
EXTT5=
EXTT6=
PLAYORDER=
